<?xml version="1.0" encoding="utf-8"?>
<svg version="1.1" id="Слой_1" xmlns="http://www.w3.org/2000/svg" xmlns:xlink="http://www.w3.org/1999/xlink" x="0px" y="0px"
	 viewBox="0 0 27 27" style="enable-background:new 0 0 27 27;" xml:space="preserve">
<g>
	<g id="Новости-Copy-2" transform="translate(-983.000000, -213.000000)">
		<g id="Group-22" transform="translate(400.000000, 182.000000)">
			<g id="Group-17" transform="translate(582.000000, 30.000000)">
				<path id="Rectangle" d="M26.5,1.7L26.5,1.7c0.8,0.8,0.8,2,0,2.8L4.6,26.5c-0.8,0.8-2,0.8-2.8,0l0,0c-0.8-0.8-0.8-2,0-2.8
					L23.6,1.7C24.4,0.9,25.7,0.9,26.5,1.7z"/>
				<path id="Rectangle-Copy-2" d="M26.5,26.5L26.5,26.5c-0.8,0.8-2,0.8-2.8,0L1.7,4.6c-0.8-0.8-0.8-2,0-2.8l0,0
					c0.8-0.8,2-0.8,2.8,0l21.9,21.9C27.3,24.4,27.3,25.7,26.5,26.5z"/>
			</g>
		</g>
	</g>
</g>
</svg>
